<?xml version="1.0" encoding="UTF-8" standalone="no"?>
<!DOCTYPE svg PUBLIC "-//W3C//DTD SVG 1.1//EN"
 "http://www.w3.org/Graphics/SVG/1.1/DTD/svg11.dtd">
<!-- Generated by graphviz version 2.43.0 (0)
 -->
<!-- Title: _tree_balance Pages: 1 -->
<svg width="503pt" height="193pt"
 viewBox="0.00 0.00 503.00 193.00" xmlns="http://www.w3.org/2000/svg" xmlns:xlink="http://www.w3.org/1999/xlink">
<g id="graph0" class="graph" transform="scale(1 1) rotate(0) translate(4 189)">
<title>_tree_balance</title>
<!-- Node1 -->
<g id="Node000001" class="node">
<title>Node1</title>
<g id="a_Node000001"><a xlink:title=" ">
<polygon fill="#999999" stroke="#666666" points="85,-93 0,-93 0,-74 85,-74 85,-93"/>
<text text-anchor="middle" x="42.5" y="-81" font-family="Helvetica,sans-Serif" font-size="10.00">_tree_balance</text>
</a>
</g>
</g>
<!-- Node2 -->
<g id="Node000002" class="node">
<title>Node2</title>
<g id="a_Node000002"><a xlink:href="avltree_8c.html#a409e21b0ca019f5dd84b9bd03f0a4551" target="_top" xlink:title=" ">
<polygon fill="white" stroke="#666666" points="210,-93 121,-93 121,-74 210,-74 210,-93"/>
<text text-anchor="middle" x="165.5" y="-81" font-family="Helvetica,sans-Serif" font-size="10.00">_node_balance</text>
</a>
</g>
</g>
<!-- Node1&#45;&gt;Node2 -->
<g id="edge1_Node000001_Node000002" class="edge">
<title>Node1&#45;&gt;Node2</title>
<g id="a_edge1_Node000001_Node000002"><a xlink:title=" ">
<path fill="none" stroke="#63b8ff" d="M85.14,-83.5C93.31,-83.5 101.98,-83.5 110.48,-83.5"/>
<polygon fill="#63b8ff" stroke="#63b8ff" points="110.72,-87 120.72,-83.5 110.72,-80 110.72,-87"/>
</a>
</g>
</g>
<!-- Node2&#45;&gt;Node2 -->
<g id="edge2_Node000002_Node000002" class="edge">
<title>Node2&#45;&gt;Node2</title>
<g id="a_edge2_Node000002_Node000002"><a xlink:title=" ">
<path fill="none" stroke="#63b8ff" d="M146.7,-93.08C137.55,-101.73 143.82,-111 165.5,-111 179.05,-111 186.58,-107.38 188.09,-102.55"/>
<polygon fill="#63b8ff" stroke="#63b8ff" points="191.27,-101.07 184.3,-93.08 184.77,-103.67 191.27,-101.07"/>
</a>
</g>
</g>
<!-- Node3 -->
<g id="Node000003" class="node">
<title>Node3</title>
<g id="a_Node000003"><a xlink:href="avltree_8c.html#ad302b38794c155c12839bfb174420b7b" target="_top" xlink:title=" ">
<polygon fill="white" stroke="#666666" points="373,-167 250,-167 250,-148 373,-148 373,-167"/>
<text text-anchor="middle" x="311.5" y="-155" font-family="Helvetica,sans-Serif" font-size="10.00">_node_balance_factor</text>
</a>
</g>
</g>
<!-- Node2&#45;&gt;Node3 -->
<g id="edge3_Node000002_Node000003" class="edge">
<title>Node2&#45;&gt;Node3</title>
<g id="a_edge3_Node000002_Node000003"><a xlink:title=" ">
<path fill="none" stroke="#63b8ff" d="M177.58,-93.18C192.27,-105.56 219.46,-126.91 246,-139.5 250.01,-141.4 254.25,-143.14 258.58,-144.71"/>
<polygon fill="#63b8ff" stroke="#63b8ff" points="257.51,-148.04 268.11,-147.91 259.74,-141.41 257.51,-148.04"/>
</a>
</g>
</g>
<!-- Node5 -->
<g id="Node000005" class="node">
<title>Node5</title>
<g id="a_Node000005"><a xlink:href="avltree_8c.html#abacf5762e086524e6c330fc423ca0f29" target="_top" xlink:title=" ">
<polygon fill="white" stroke="#666666" points="370,-130 253,-130 253,-111 370,-111 370,-130"/>
<text text-anchor="middle" x="311.5" y="-118" font-family="Helvetica,sans-Serif" font-size="10.00">_node_rotate_leftleft</text>
</a>
</g>
</g>
<!-- Node2&#45;&gt;Node5 -->
<g id="edge6_Node000002_Node000005" class="edge">
<title>Node2&#45;&gt;Node5</title>
<g id="a_edge6_Node000002_Node000005"><a xlink:title=" ">
<path fill="none" stroke="#63b8ff" d="M203.58,-93.03C221.75,-97.7 243.83,-103.37 263.2,-108.35"/>
<polygon fill="#63b8ff" stroke="#63b8ff" points="262.49,-111.78 273.04,-110.88 264.23,-105 262.49,-111.78"/>
</a>
</g>
</g>
<!-- Node6 -->
<g id="Node000006" class="node">
<title>Node6</title>
<g id="a_Node000006"><a xlink:href="avltree_8c.html#a68014848fecb2fa2123ab65da6644175" target="_top" xlink:title=" ">
<polygon fill="white" stroke="#666666" points="373.5,-93 249.5,-93 249.5,-74 373.5,-74 373.5,-93"/>
<text text-anchor="middle" x="311.5" y="-81" font-family="Helvetica,sans-Serif" font-size="10.00">_node_rotate_leftright</text>
</a>
</g>
</g>
<!-- Node2&#45;&gt;Node6 -->
<g id="edge7_Node000002_Node000006" class="edge">
<title>Node2&#45;&gt;Node6</title>
<g id="a_edge7_Node000002_Node000006"><a xlink:title=" ">
<path fill="none" stroke="#63b8ff" d="M210.1,-83.5C219.25,-83.5 229.13,-83.5 239,-83.5"/>
<polygon fill="#63b8ff" stroke="#63b8ff" points="239.26,-87 249.26,-83.5 239.26,-80 239.26,-87"/>
</a>
</g>
</g>
<!-- Node7 -->
<g id="Node000007" class="node">
<title>Node7</title>
<g id="a_Node000007"><a xlink:href="avltree_8c.html#ac68caaea5bbf14cd2c10429bb3a7ee4c" target="_top" xlink:title=" ">
<polygon fill="white" stroke="#666666" points="373.5,-56 249.5,-56 249.5,-37 373.5,-37 373.5,-56"/>
<text text-anchor="middle" x="311.5" y="-44" font-family="Helvetica,sans-Serif" font-size="10.00">_node_rotate_rightleft</text>
</a>
</g>
</g>
<!-- Node2&#45;&gt;Node7 -->
<g id="edge8_Node000002_Node000007" class="edge">
<title>Node2&#45;&gt;Node7</title>
<g id="a_edge8_Node000002_Node000007"><a xlink:title=" ">
<path fill="none" stroke="#63b8ff" d="M203.58,-73.97C221.75,-69.3 243.83,-63.63 263.2,-58.65"/>
<polygon fill="#63b8ff" stroke="#63b8ff" points="264.23,-62 273.04,-56.12 262.49,-55.22 264.23,-62"/>
</a>
</g>
</g>
<!-- Node8 -->
<g id="Node000008" class="node">
<title>Node8</title>
<g id="a_Node000008"><a xlink:href="avltree_8c.html#a1731bd42e319053bc53156c76776c27a" target="_top" xlink:title=" ">
<polygon fill="white" stroke="#666666" points="377,-19 246,-19 246,0 377,0 377,-19"/>
<text text-anchor="middle" x="311.5" y="-7" font-family="Helvetica,sans-Serif" font-size="10.00">_node_rotate_rightright</text>
</a>
</g>
</g>
<!-- Node2&#45;&gt;Node8 -->
<g id="edge9_Node000002_Node000008" class="edge">
<title>Node2&#45;&gt;Node8</title>
<g id="a_edge9_Node000002_Node000008"><a xlink:title=" ">
<path fill="none" stroke="#63b8ff" d="M177.89,-73.85C192.71,-61.74 219.8,-41.02 246,-28.5 250.87,-26.17 256.09,-24.06 261.37,-22.17"/>
<polygon fill="#63b8ff" stroke="#63b8ff" points="262.49,-25.49 270.87,-19.01 260.28,-18.85 262.49,-25.49"/>
</a>
</g>
</g>
<!-- Node4 -->
<g id="Node000004" class="node">
<title>Node4</title>
<g id="a_Node000004"><a xlink:href="avltree_8c.html#a9c2fe9f761b42a5763b0a54960407fdb" target="_top" xlink:title=" ">
<polygon fill="white" stroke="#666666" points="495,-167 413,-167 413,-148 495,-148 495,-167"/>
<text text-anchor="middle" x="454" y="-155" font-family="Helvetica,sans-Serif" font-size="10.00">_node_height</text>
</a>
</g>
</g>
<!-- Node3&#45;&gt;Node4 -->
<g id="edge4_Node000003_Node000004" class="edge">
<title>Node3&#45;&gt;Node4</title>
<g id="a_edge4_Node000003_Node000004"><a xlink:title=" ">
<path fill="none" stroke="#63b8ff" d="M373.31,-157.5C383.11,-157.5 393.17,-157.5 402.69,-157.5"/>
<polygon fill="#63b8ff" stroke="#63b8ff" points="402.77,-161 412.77,-157.5 402.77,-154 402.77,-161"/>
</a>
</g>
</g>
<!-- Node4&#45;&gt;Node4 -->
<g id="edge5_Node000004_Node000004" class="edge">
<title>Node4&#45;&gt;Node4</title>
<g id="a_edge5_Node000004_Node000004"><a xlink:title=" ">
<path fill="none" stroke="#63b8ff" d="M432.11,-167.08C421.47,-175.73 428.76,-185 454,-185 470.17,-185 478.97,-181.2 480.41,-176.19"/>
<polygon fill="#63b8ff" stroke="#63b8ff" points="483.47,-174.48 475.89,-167.08 477.2,-177.6 483.47,-174.48"/>
</a>
</g>
</g>
</g>
</svg>
