<?xml version="1.0" encoding="UTF-8" standalone="no"?>
<!DOCTYPE svg PUBLIC "-//W3C//DTD SVG 1.1//EN"
 "http://www.w3.org/Graphics/SVG/1.1/DTD/svg11.dtd">
<!-- Generated by graphviz version 2.43.0 (0)
 -->
<!-- Title: avlt_insert_node Pages: 1 -->
<svg width="637pt" height="193pt"
 viewBox="0.00 0.00 637.00 193.00" xmlns="http://www.w3.org/2000/svg" xmlns:xlink="http://www.w3.org/1999/xlink">
<g id="graph0" class="graph" transform="scale(1 1) rotate(0) translate(4 189)">
<title>avlt_insert_node</title>
<!-- Node1 -->
<g id="Node000001" class="node">
<title>Node1</title>
<g id="a_Node000001"><a xlink:title=" ">
<polygon fill="#999999" stroke="#666666" points="98,-93 0,-93 0,-74 98,-74 98,-93"/>
<text text-anchor="middle" x="49" y="-81" font-family="Helvetica,sans-Serif" font-size="10.00">avlt_insert_node</text>
</a>
</g>
</g>
<!-- Node2 -->
<g id="Node000002" class="node">
<title>Node2</title>
<g id="a_Node000002"><a xlink:href="avltree_8c.html#a8ead7bb96619788a3769bf02ffc7ddb0" target="_top" xlink:title=" ">
<polygon fill="white" stroke="#666666" points="219,-93 134,-93 134,-74 219,-74 219,-93"/>
<text text-anchor="middle" x="176.5" y="-81" font-family="Helvetica,sans-Serif" font-size="10.00">_tree_balance</text>
</a>
</g>
</g>
<!-- Node1&#45;&gt;Node2 -->
<g id="edge1_Node000001_Node000002" class="edge">
<title>Node1&#45;&gt;Node2</title>
<g id="a_edge1_Node000001_Node000002"><a xlink:title=" ">
<path fill="none" stroke="#63b8ff" d="M98.16,-83.5C106.52,-83.5 115.24,-83.5 123.68,-83.5"/>
<polygon fill="#63b8ff" stroke="#63b8ff" points="123.81,-87 133.81,-83.5 123.81,-80 123.81,-87"/>
</a>
</g>
</g>
<!-- Node3 -->
<g id="Node000003" class="node">
<title>Node3</title>
<g id="a_Node000003"><a xlink:href="avltree_8c.html#a409e21b0ca019f5dd84b9bd03f0a4551" target="_top" xlink:title=" ">
<polygon fill="white" stroke="#666666" points="344,-93 255,-93 255,-74 344,-74 344,-93"/>
<text text-anchor="middle" x="299.5" y="-81" font-family="Helvetica,sans-Serif" font-size="10.00">_node_balance</text>
</a>
</g>
</g>
<!-- Node2&#45;&gt;Node3 -->
<g id="edge2_Node000002_Node000003" class="edge">
<title>Node2&#45;&gt;Node3</title>
<g id="a_edge2_Node000002_Node000003"><a xlink:title=" ">
<path fill="none" stroke="#63b8ff" d="M219.14,-83.5C227.31,-83.5 235.98,-83.5 244.48,-83.5"/>
<polygon fill="#63b8ff" stroke="#63b8ff" points="244.72,-87 254.72,-83.5 244.72,-80 244.72,-87"/>
</a>
</g>
</g>
<!-- Node3&#45;&gt;Node3 -->
<g id="edge3_Node000003_Node000003" class="edge">
<title>Node3&#45;&gt;Node3</title>
<g id="a_edge3_Node000003_Node000003"><a xlink:title=" ">
<path fill="none" stroke="#63b8ff" d="M280.7,-93.08C271.55,-101.73 277.82,-111 299.5,-111 313.05,-111 320.58,-107.38 322.09,-102.55"/>
<polygon fill="#63b8ff" stroke="#63b8ff" points="325.27,-101.07 318.3,-93.08 318.77,-103.67 325.27,-101.07"/>
</a>
</g>
</g>
<!-- Node4 -->
<g id="Node000004" class="node">
<title>Node4</title>
<g id="a_Node000004"><a xlink:href="avltree_8c.html#ad302b38794c155c12839bfb174420b7b" target="_top" xlink:title=" ">
<polygon fill="white" stroke="#666666" points="507,-167 384,-167 384,-148 507,-148 507,-167"/>
<text text-anchor="middle" x="445.5" y="-155" font-family="Helvetica,sans-Serif" font-size="10.00">_node_balance_factor</text>
</a>
</g>
</g>
<!-- Node3&#45;&gt;Node4 -->
<g id="edge4_Node000003_Node000004" class="edge">
<title>Node3&#45;&gt;Node4</title>
<g id="a_edge4_Node000003_Node000004"><a xlink:title=" ">
<path fill="none" stroke="#63b8ff" d="M311.58,-93.18C326.27,-105.56 353.46,-126.91 380,-139.5 384.01,-141.4 388.25,-143.14 392.58,-144.71"/>
<polygon fill="#63b8ff" stroke="#63b8ff" points="391.51,-148.04 402.11,-147.91 393.74,-141.41 391.51,-148.04"/>
</a>
</g>
</g>
<!-- Node6 -->
<g id="Node000006" class="node">
<title>Node6</title>
<g id="a_Node000006"><a xlink:href="avltree_8c.html#abacf5762e086524e6c330fc423ca0f29" target="_top" xlink:title=" ">
<polygon fill="white" stroke="#666666" points="504,-130 387,-130 387,-111 504,-111 504,-130"/>
<text text-anchor="middle" x="445.5" y="-118" font-family="Helvetica,sans-Serif" font-size="10.00">_node_rotate_leftleft</text>
</a>
</g>
</g>
<!-- Node3&#45;&gt;Node6 -->
<g id="edge7_Node000003_Node000006" class="edge">
<title>Node3&#45;&gt;Node6</title>
<g id="a_edge7_Node000003_Node000006"><a xlink:title=" ">
<path fill="none" stroke="#63b8ff" d="M337.58,-93.03C355.75,-97.7 377.83,-103.37 397.2,-108.35"/>
<polygon fill="#63b8ff" stroke="#63b8ff" points="396.49,-111.78 407.04,-110.88 398.23,-105 396.49,-111.78"/>
</a>
</g>
</g>
<!-- Node7 -->
<g id="Node000007" class="node">
<title>Node7</title>
<g id="a_Node000007"><a xlink:href="avltree_8c.html#a68014848fecb2fa2123ab65da6644175" target="_top" xlink:title=" ">
<polygon fill="white" stroke="#666666" points="507.5,-93 383.5,-93 383.5,-74 507.5,-74 507.5,-93"/>
<text text-anchor="middle" x="445.5" y="-81" font-family="Helvetica,sans-Serif" font-size="10.00">_node_rotate_leftright</text>
</a>
</g>
</g>
<!-- Node3&#45;&gt;Node7 -->
<g id="edge8_Node000003_Node000007" class="edge">
<title>Node3&#45;&gt;Node7</title>
<g id="a_edge8_Node000003_Node000007"><a xlink:title=" ">
<path fill="none" stroke="#63b8ff" d="M344.1,-83.5C353.25,-83.5 363.13,-83.5 373,-83.5"/>
<polygon fill="#63b8ff" stroke="#63b8ff" points="373.26,-87 383.26,-83.5 373.26,-80 373.26,-87"/>
</a>
</g>
</g>
<!-- Node8 -->
<g id="Node000008" class="node">
<title>Node8</title>
<g id="a_Node000008"><a xlink:href="avltree_8c.html#ac68caaea5bbf14cd2c10429bb3a7ee4c" target="_top" xlink:title=" ">
<polygon fill="white" stroke="#666666" points="507.5,-56 383.5,-56 383.5,-37 507.5,-37 507.5,-56"/>
<text text-anchor="middle" x="445.5" y="-44" font-family="Helvetica,sans-Serif" font-size="10.00">_node_rotate_rightleft</text>
</a>
</g>
</g>
<!-- Node3&#45;&gt;Node8 -->
<g id="edge9_Node000003_Node000008" class="edge">
<title>Node3&#45;&gt;Node8</title>
<g id="a_edge9_Node000003_Node000008"><a xlink:title=" ">
<path fill="none" stroke="#63b8ff" d="M337.58,-73.97C355.75,-69.3 377.83,-63.63 397.2,-58.65"/>
<polygon fill="#63b8ff" stroke="#63b8ff" points="398.23,-62 407.04,-56.12 396.49,-55.22 398.23,-62"/>
</a>
</g>
</g>
<!-- Node9 -->
<g id="Node000009" class="node">
<title>Node9</title>
<g id="a_Node000009"><a xlink:href="avltree_8c.html#a1731bd42e319053bc53156c76776c27a" target="_top" xlink:title=" ">
<polygon fill="white" stroke="#666666" points="511,-19 380,-19 380,0 511,0 511,-19"/>
<text text-anchor="middle" x="445.5" y="-7" font-family="Helvetica,sans-Serif" font-size="10.00">_node_rotate_rightright</text>
</a>
</g>
</g>
<!-- Node3&#45;&gt;Node9 -->
<g id="edge10_Node000003_Node000009" class="edge">
<title>Node3&#45;&gt;Node9</title>
<g id="a_edge10_Node000003_Node000009"><a xlink:title=" ">
<path fill="none" stroke="#63b8ff" d="M311.89,-73.85C326.71,-61.74 353.8,-41.02 380,-28.5 384.87,-26.17 390.09,-24.06 395.37,-22.17"/>
<polygon fill="#63b8ff" stroke="#63b8ff" points="396.49,-25.49 404.87,-19.01 394.28,-18.85 396.49,-25.49"/>
</a>
</g>
</g>
<!-- Node5 -->
<g id="Node000005" class="node">
<title>Node5</title>
<g id="a_Node000005"><a xlink:href="avltree_8c.html#a9c2fe9f761b42a5763b0a54960407fdb" target="_top" xlink:title=" ">
<polygon fill="white" stroke="#666666" points="629,-167 547,-167 547,-148 629,-148 629,-167"/>
<text text-anchor="middle" x="588" y="-155" font-family="Helvetica,sans-Serif" font-size="10.00">_node_height</text>
</a>
</g>
</g>
<!-- Node4&#45;&gt;Node5 -->
<g id="edge5_Node000004_Node000005" class="edge">
<title>Node4&#45;&gt;Node5</title>
<g id="a_edge5_Node000004_Node000005"><a xlink:title=" ">
<path fill="none" stroke="#63b8ff" d="M507.31,-157.5C517.11,-157.5 527.17,-157.5 536.69,-157.5"/>
<polygon fill="#63b8ff" stroke="#63b8ff" points="536.77,-161 546.77,-157.5 536.77,-154 536.77,-161"/>
</a>
</g>
</g>
<!-- Node5&#45;&gt;Node5 -->
<g id="edge6_Node000005_Node000005" class="edge">
<title>Node5&#45;&gt;Node5</title>
<g id="a_edge6_Node000005_Node000005"><a xlink:title=" ">
<path fill="none" stroke="#63b8ff" d="M566.11,-167.08C555.47,-175.73 562.76,-185 588,-185 604.17,-185 612.97,-181.2 614.41,-176.19"/>
<polygon fill="#63b8ff" stroke="#63b8ff" points="617.47,-174.48 609.89,-167.08 611.2,-177.6 617.47,-174.48"/>
</a>
</g>
</g>
</g>
</svg>
