<?xml version="1.0" encoding="UTF-8" standalone="no"?>
<!DOCTYPE svg PUBLIC "-//W3C//DTD SVG 1.1//EN"
 "http://www.w3.org/Graphics/SVG/1.1/DTD/svg11.dtd">
<!-- Generated by graphviz version 2.43.0 (0)
 -->
<!-- Title: _node_height Pages: 1 -->
<svg width="629pt" height="45pt"
 viewBox="0.00 0.00 629.00 45.00" xmlns="http://www.w3.org/2000/svg" xmlns:xlink="http://www.w3.org/1999/xlink">
<g id="graph0" class="graph" transform="scale(1 1) rotate(0) translate(4 41)">
<title>_node_height</title>
<!-- Node1 -->
<g id="Node000001" class="node">
<title>Node1</title>
<g id="a_Node000001"><a xlink:title=" ">
<polygon fill="#999999" stroke="#666666" points="621,-19 539,-19 539,0 621,0 621,-19"/>
<text text-anchor="middle" x="580" y="-7" font-family="Helvetica,sans-Serif" font-size="10.00">_node_height</text>
</a>
</g>
</g>
<!-- Node1&#45;&gt;Node1 -->
<g id="edge6_Node000001_Node000001" class="edge">
<title>Node1&#45;&gt;Node1</title>
<g id="a_edge6_Node000001_Node000001"><a xlink:title=" ">
<path fill="none" stroke="#63b8ff" d="M605.67,-28.19C604.27,-33.2 595.71,-37 580,-37 555.47,-37 548.38,-27.73 558.73,-19.08"/>
<polygon fill="#63b8ff" stroke="#63b8ff" points="608.77,-26.56 601.27,-19.08 602.47,-29.61 608.77,-26.56"/>
</a>
</g>
</g>
<!-- Node2 -->
<g id="Node000002" class="node">
<title>Node2</title>
<g id="a_Node000002"><a xlink:href="avltree_8c.html#ad302b38794c155c12839bfb174420b7b" target="_top" xlink:title=" ">
<polygon fill="white" stroke="#666666" points="503,-19 380,-19 380,0 503,0 503,-19"/>
<text text-anchor="middle" x="441.5" y="-7" font-family="Helvetica,sans-Serif" font-size="10.00">_node_balance_factor</text>
</a>
</g>
</g>
<!-- Node1&#45;&gt;Node2 -->
<g id="edge1_Node000001_Node000002" class="edge">
<title>Node1&#45;&gt;Node2</title>
<g id="a_edge1_Node000001_Node000002"><a xlink:title=" ">
<path fill="none" stroke="#63b8ff" d="M528.56,-9.5C520.29,-9.5 511.66,-9.5 503.18,-9.5"/>
<polygon fill="#63b8ff" stroke="#63b8ff" points="528.78,-13 538.78,-9.5 528.78,-6 528.78,-13"/>
</a>
</g>
</g>
<!-- Node3 -->
<g id="Node000003" class="node">
<title>Node3</title>
<g id="a_Node000003"><a xlink:href="avltree_8c.html#a409e21b0ca019f5dd84b9bd03f0a4551" target="_top" xlink:title=" ">
<polygon fill="white" stroke="#666666" points="344,-19 255,-19 255,0 344,0 344,-19"/>
<text text-anchor="middle" x="299.5" y="-7" font-family="Helvetica,sans-Serif" font-size="10.00">_node_balance</text>
</a>
</g>
</g>
<!-- Node2&#45;&gt;Node3 -->
<g id="edge2_Node000002_Node000003" class="edge">
<title>Node2&#45;&gt;Node3</title>
<g id="a_edge2_Node000002_Node000003"><a xlink:title=" ">
<path fill="none" stroke="#63b8ff" d="M369.75,-9.5C361.08,-9.5 352.42,-9.5 344.31,-9.5"/>
<polygon fill="#63b8ff" stroke="#63b8ff" points="369.91,-13 379.91,-9.5 369.91,-6 369.91,-13"/>
</a>
</g>
</g>
<!-- Node3&#45;&gt;Node3 -->
<g id="edge3_Node000003_Node000003" class="edge">
<title>Node3&#45;&gt;Node3</title>
<g id="a_edge3_Node000003_Node000003"><a xlink:title=" ">
<path fill="none" stroke="#63b8ff" d="M322.09,-28.55C320.58,-33.38 313.05,-37 299.5,-37 277.82,-37 271.55,-27.73 280.7,-19.08"/>
<polygon fill="#63b8ff" stroke="#63b8ff" points="325.27,-27.07 318.3,-19.08 318.77,-29.67 325.27,-27.07"/>
</a>
</g>
</g>
<!-- Node4 -->
<g id="Node000004" class="node">
<title>Node4</title>
<g id="a_Node000004"><a xlink:href="avltree_8c.html#a8ead7bb96619788a3769bf02ffc7ddb0" target="_top" xlink:title=" ">
<polygon fill="white" stroke="#666666" points="219,-19 134,-19 134,0 219,0 219,-19"/>
<text text-anchor="middle" x="176.5" y="-7" font-family="Helvetica,sans-Serif" font-size="10.00">_tree_balance</text>
</a>
</g>
</g>
<!-- Node3&#45;&gt;Node4 -->
<g id="edge4_Node000003_Node000004" class="edge">
<title>Node3&#45;&gt;Node4</title>
<g id="a_edge4_Node000003_Node000004"><a xlink:title=" ">
<path fill="none" stroke="#63b8ff" d="M244.54,-9.5C236,-9.5 227.29,-9.5 219.1,-9.5"/>
<polygon fill="#63b8ff" stroke="#63b8ff" points="244.82,-13 254.82,-9.5 244.82,-6 244.82,-13"/>
</a>
</g>
</g>
<!-- Node5 -->
<g id="Node000005" class="node">
<title>Node5</title>
<g id="a_Node000005"><a xlink:href="avltree_8c.html#ad87ef831d2d5a8d1e6d310ebde53a4e4" target="_top" xlink:title=" ">
<polygon fill="white" stroke="#666666" points="98,-19 0,-19 0,0 98,0 98,-19"/>
<text text-anchor="middle" x="49" y="-7" font-family="Helvetica,sans-Serif" font-size="10.00">avlt_insert_node</text>
</a>
</g>
</g>
<!-- Node4&#45;&gt;Node5 -->
<g id="edge5_Node000004_Node000005" class="edge">
<title>Node4&#45;&gt;Node5</title>
<g id="a_edge5_Node000004_Node000005"><a xlink:title=" ">
<path fill="none" stroke="#63b8ff" d="M123.6,-9.5C115.16,-9.5 106.46,-9.5 98.12,-9.5"/>
<polygon fill="#63b8ff" stroke="#63b8ff" points="123.71,-13 133.71,-9.5 123.71,-6 123.71,-13"/>
</a>
</g>
</g>
</g>
</svg>
