<?xml version="1.0" encoding="UTF-8" standalone="no"?>
<!DOCTYPE svg PUBLIC "-//W3C//DTD SVG 1.1//EN"
 "http://www.w3.org/Graphics/SVG/1.1/DTD/svg11.dtd">
<!-- Generated by graphviz version 2.43.0 (0)
 -->
<!-- Title: _node_balance Pages: 1 -->
<svg width="382pt" height="193pt"
 viewBox="0.00 0.00 382.00 193.00" xmlns="http://www.w3.org/2000/svg" xmlns:xlink="http://www.w3.org/1999/xlink">

<svg id="main" version="1.1" xmlns="http://www.w3.org/2000/svg" xmlns:xlink="http://www.w3.org/1999/xlink" xml:space="preserve" onload="init(evt)">
<style type="text/css"><![CDATA[
.node, .edge {opacity: 0.7;}
.node.selected, .edge.selected {opacity: 1;}
.edge:hover path { stroke: red; }
.edge:hover polygon { stroke: red; fill: red; }
]]></style>
<script type="application/ecmascript" xlink:href="svg.min.js"/>
<svg id="graph" class="graph">
<g id="graph0" class="graph" transform="scale(1 1) rotate(0) translate(4 189)">
<title>_node_balance</title>
<!-- Node1 -->
<g id="Node000001" class="node">
<title>Node1</title>
<g id="a_Node000001"><a xlink:title=" ">
<polygon fill="#999999" stroke="#666666" points="89,-93 0,-93 0,-74 89,-74 89,-93"/>
<text text-anchor="middle" x="44.5" y="-81" font-family="Helvetica,sans-Serif" font-size="10.00">_node_balance</text>
</a>
</g>
</g>
<!-- Node1&#45;&gt;Node1 -->
<g id="edge1_Node000001_Node000001" class="edge">
<title>Node1&#45;&gt;Node1</title>
<g id="a_edge1_Node000001_Node000001"><a xlink:title=" ">
<path fill="none" stroke="#63b8ff" d="M22,-93.08C11.05,-101.73 18.55,-111 44.5,-111 61.12,-111 70.18,-107.2 71.66,-102.19"/>
<polygon fill="#63b8ff" stroke="#63b8ff" points="74.67,-100.39 67,-93.08 68.44,-103.58 74.67,-100.39"/>
</a>
</g>
</g>
<!-- Node2 -->
<g id="Node000002" class="node">
<title>Node2</title>
<g id="a_Node000002"><a xlink:href="avltree_8c.html#ad302b38794c155c12839bfb174420b7b" target="_top" xlink:title=" ">
<polygon fill="white" stroke="#666666" points="252,-167 129,-167 129,-148 252,-148 252,-167"/>
<text text-anchor="middle" x="190.5" y="-155" font-family="Helvetica,sans-Serif" font-size="10.00">_node_balance_factor</text>
</a>
</g>
</g>
<!-- Node1&#45;&gt;Node2 -->
<g id="edge2_Node000001_Node000002" class="edge">
<title>Node1&#45;&gt;Node2</title>
<g id="a_edge2_Node000001_Node000002"><a xlink:title=" ">
<path fill="none" stroke="#63b8ff" d="M56.58,-93.18C71.27,-105.56 98.46,-126.91 125,-139.5 129.01,-141.4 133.25,-143.14 137.58,-144.71"/>
<polygon fill="#63b8ff" stroke="#63b8ff" points="136.51,-148.04 147.11,-147.91 138.74,-141.41 136.51,-148.04"/>
</a>
</g>
</g>
<!-- Node4 -->
<g id="Node000004" class="node">
<title>Node4</title>
<g id="a_Node000004"><a xlink:href="avltree_8c.html#abacf5762e086524e6c330fc423ca0f29" target="_top" xlink:title=" ">
<polygon fill="white" stroke="#666666" points="249,-130 132,-130 132,-111 249,-111 249,-130"/>
<text text-anchor="middle" x="190.5" y="-118" font-family="Helvetica,sans-Serif" font-size="10.00">_node_rotate_leftleft</text>
</a>
</g>
</g>
<!-- Node1&#45;&gt;Node4 -->
<g id="edge5_Node000001_Node000004" class="edge">
<title>Node1&#45;&gt;Node4</title>
<g id="a_edge5_Node000001_Node000004"><a xlink:title=" ">
<path fill="none" stroke="#63b8ff" d="M82.58,-93.03C100.75,-97.7 122.83,-103.37 142.2,-108.35"/>
<polygon fill="#63b8ff" stroke="#63b8ff" points="141.49,-111.78 152.04,-110.88 143.23,-105 141.49,-111.78"/>
</a>
</g>
</g>
<!-- Node5 -->
<g id="Node000005" class="node">
<title>Node5</title>
<g id="a_Node000005"><a xlink:href="avltree_8c.html#a68014848fecb2fa2123ab65da6644175" target="_top" xlink:title=" ">
<polygon fill="white" stroke="#666666" points="252.5,-93 128.5,-93 128.5,-74 252.5,-74 252.5,-93"/>
<text text-anchor="middle" x="190.5" y="-81" font-family="Helvetica,sans-Serif" font-size="10.00">_node_rotate_leftright</text>
</a>
</g>
</g>
<!-- Node1&#45;&gt;Node5 -->
<g id="edge6_Node000001_Node000005" class="edge">
<title>Node1&#45;&gt;Node5</title>
<g id="a_edge6_Node000001_Node000005"><a xlink:title=" ">
<path fill="none" stroke="#63b8ff" d="M89.1,-83.5C98.25,-83.5 108.13,-83.5 118,-83.5"/>
<polygon fill="#63b8ff" stroke="#63b8ff" points="118.26,-87 128.26,-83.5 118.26,-80 118.26,-87"/>
</a>
</g>
</g>
<!-- Node6 -->
<g id="Node000006" class="node">
<title>Node6</title>
<g id="a_Node000006"><a xlink:href="avltree_8c.html#ac68caaea5bbf14cd2c10429bb3a7ee4c" target="_top" xlink:title=" ">
<polygon fill="white" stroke="#666666" points="252.5,-56 128.5,-56 128.5,-37 252.5,-37 252.5,-56"/>
<text text-anchor="middle" x="190.5" y="-44" font-family="Helvetica,sans-Serif" font-size="10.00">_node_rotate_rightleft</text>
</a>
</g>
</g>
<!-- Node1&#45;&gt;Node6 -->
<g id="edge7_Node000001_Node000006" class="edge">
<title>Node1&#45;&gt;Node6</title>
<g id="a_edge7_Node000001_Node000006"><a xlink:title=" ">
<path fill="none" stroke="#63b8ff" d="M82.58,-73.97C100.75,-69.3 122.83,-63.63 142.2,-58.65"/>
<polygon fill="#63b8ff" stroke="#63b8ff" points="143.23,-62 152.04,-56.12 141.49,-55.22 143.23,-62"/>
</a>
</g>
</g>
<!-- Node7 -->
<g id="Node000007" class="node">
<title>Node7</title>
<g id="a_Node000007"><a xlink:href="avltree_8c.html#a1731bd42e319053bc53156c76776c27a" target="_top" xlink:title=" ">
<polygon fill="white" stroke="#666666" points="256,-19 125,-19 125,0 256,0 256,-19"/>
<text text-anchor="middle" x="190.5" y="-7" font-family="Helvetica,sans-Serif" font-size="10.00">_node_rotate_rightright</text>
</a>
</g>
</g>
<!-- Node1&#45;&gt;Node7 -->
<g id="edge8_Node000001_Node000007" class="edge">
<title>Node1&#45;&gt;Node7</title>
<g id="a_edge8_Node000001_Node000007"><a xlink:title=" ">
<path fill="none" stroke="#63b8ff" d="M56.89,-73.85C71.71,-61.74 98.8,-41.02 125,-28.5 129.87,-26.17 135.09,-24.06 140.37,-22.17"/>
<polygon fill="#63b8ff" stroke="#63b8ff" points="141.49,-25.49 149.87,-19.01 139.28,-18.85 141.49,-25.49"/>
</a>
</g>
</g>
<!-- Node3 -->
<g id="Node000003" class="node">
<title>Node3</title>
<g id="a_Node000003"><a xlink:href="avltree_8c.html#a9c2fe9f761b42a5763b0a54960407fdb" target="_top" xlink:title=" ">
<polygon fill="white" stroke="#666666" points="374,-167 292,-167 292,-148 374,-148 374,-167"/>
<text text-anchor="middle" x="333" y="-155" font-family="Helvetica,sans-Serif" font-size="10.00">_node_height</text>
</a>
</g>
</g>
<!-- Node2&#45;&gt;Node3 -->
<g id="edge3_Node000002_Node000003" class="edge">
<title>Node2&#45;&gt;Node3</title>
<g id="a_edge3_Node000002_Node000003"><a xlink:title=" ">
<path fill="none" stroke="#63b8ff" d="M252.31,-157.5C262.11,-157.5 272.17,-157.5 281.69,-157.5"/>
<polygon fill="#63b8ff" stroke="#63b8ff" points="281.77,-161 291.77,-157.5 281.77,-154 281.77,-161"/>
</a>
</g>
</g>
<!-- Node3&#45;&gt;Node3 -->
<g id="edge4_Node000003_Node000003" class="edge">
<title>Node3&#45;&gt;Node3</title>
<g id="a_edge4_Node000003_Node000003"><a xlink:title=" ">
<path fill="none" stroke="#63b8ff" d="M311.11,-167.08C300.47,-175.73 307.76,-185 333,-185 349.17,-185 357.97,-181.2 359.41,-176.19"/>
<polygon fill="#63b8ff" stroke="#63b8ff" points="362.47,-174.48 354.89,-167.08 356.2,-177.6 362.47,-174.48"/>
</a>
</g>
</g>
</g>
</svg>
</svg>

<style type='text/css'>
<![CDATA[
[data-mouse-over-selected='false'] { opacity: 0.7; }
[data-mouse-over-selected='true']  { opacity: 1.0; }
]]>
</style>
<script type="application/ecmascript"><![CDATA[
document.addEventListener('DOMContentLoaded', (event) => {
  highlightEdges();
  highlightAdjacentNodes();
});
]]></script>
</svg>
