<?xml version="1.0" encoding="UTF-8" standalone="no"?>
<!DOCTYPE svg PUBLIC "-//W3C//DTD SVG 1.1//EN"
 "http://www.w3.org/Graphics/SVG/1.1/DTD/svg11.dtd">
<!-- Generated by graphviz version 2.43.0 (0)
 -->
<!-- Title: bytebuf_cPopChunkLen Pages: 1 -->
<svg width="288pt" height="101pt"
 viewBox="0.00 0.00 288.00 101.00" xmlns="http://www.w3.org/2000/svg" xmlns:xlink="http://www.w3.org/1999/xlink">
<g id="graph0" class="graph" transform="scale(1 1) rotate(0) translate(4 97)">
<title>bytebuf_cPopChunkLen</title>
<!-- Node1 -->
<g id="Node000001" class="node">
<title>Node1</title>
<g id="a_Node000001"><a xlink:title="Return the number of bytes that can be read contiguously.">
<polygon fill="#999999" stroke="#666666" points="280,-56 149,-56 149,-37 280,-37 280,-56"/>
<text text-anchor="middle" x="214.5" y="-44" font-family="Helvetica,sans-Serif" font-size="10.00">bytebuf_cPopChunkLen</text>
</a>
</g>
</g>
<!-- Node2 -->
<g id="Node000002" class="node">
<title>Node2</title>
<g id="a_Node000002"><a xlink:href="bytebuf_8c.html#ae0a37e09e092e61d367206fffe2f4d31" target="_top" xlink:title=" ">
<polygon fill="white" stroke="#666666" points="110,-93 3,-93 3,-74 110,-74 110,-93"/>
<text text-anchor="middle" x="56.5" y="-81" font-family="Helvetica,sans-Serif" font-size="10.00">bytebuf_cCopyLen</text>
</a>
</g>
</g>
<!-- Node1&#45;&gt;Node2 -->
<g id="edge1_Node000001_Node000002" class="edge">
<title>Node1&#45;&gt;Node2</title>
<g id="a_edge1_Node000001_Node000002"><a xlink:title=" ">
<path fill="none" stroke="#63b8ff" d="M163.51,-58.36C142.28,-63.39 117.86,-69.18 97.81,-73.94"/>
<polygon fill="#63b8ff" stroke="#63b8ff" points="164.4,-61.74 173.33,-56.03 162.79,-54.93 164.4,-61.74"/>
</a>
</g>
</g>
<!-- Node3 -->
<g id="Node000003" class="node">
<title>Node3</title>
<g id="a_Node000003"><a xlink:href="bytebuf_8c.html#a7421f4d90d80d0f61de5758df5115f2c" target="_top" xlink:title="Mark the next n outbytes as handled. This function is intended to be used with DMA or other functions...">
<polygon fill="white" stroke="#666666" points="113,-56 0,-56 0,-37 113,-37 113,-56"/>
<text text-anchor="middle" x="56.5" y="-44" font-family="Helvetica,sans-Serif" font-size="10.00">bytebuf_cPopChunk</text>
</a>
</g>
</g>
<!-- Node1&#45;&gt;Node3 -->
<g id="edge2_Node000001_Node000003" class="edge">
<title>Node1&#45;&gt;Node3</title>
<g id="a_edge2_Node000001_Node000003"><a xlink:title=" ">
<path fill="none" stroke="#63b8ff" d="M138.46,-46.5C130.02,-46.5 121.54,-46.5 113.41,-46.5"/>
<polygon fill="#63b8ff" stroke="#63b8ff" points="138.7,-50 148.7,-46.5 138.7,-43 138.7,-50"/>
</a>
</g>
</g>
<!-- Node4 -->
<g id="Node000004" class="node">
<title>Node4</title>
<g id="a_Node000004"><a xlink:href="bytebuf_8c.html#a5512c5335eef0d9c18059bacb340bc45" target="_top" xlink:title=" ">
<polygon fill="white" stroke="#666666" points="106.5,-19 6.5,-19 6.5,0 106.5,0 106.5,-19"/>
<text text-anchor="middle" x="56.5" y="-7" font-family="Helvetica,sans-Serif" font-size="10.00">bytebuf_cPopLen</text>
</a>
</g>
</g>
<!-- Node1&#45;&gt;Node4 -->
<g id="edge3_Node000001_Node000004" class="edge">
<title>Node1&#45;&gt;Node4</title>
<g id="a_edge3_Node000001_Node000004"><a xlink:title=" ">
<path fill="none" stroke="#63b8ff" d="M163.51,-34.64C142.28,-29.61 117.86,-23.82 97.81,-19.06"/>
<polygon fill="#63b8ff" stroke="#63b8ff" points="162.79,-38.07 173.33,-36.97 164.4,-31.26 162.79,-38.07"/>
</a>
</g>
</g>
</g>
</svg>
