<?xml version="1.0" encoding="UTF-8" standalone="no"?>
<!DOCTYPE svg PUBLIC "-//W3C//DTD SVG 1.1//EN"
 "http://www.w3.org/Graphics/SVG/1.1/DTD/svg11.dtd">
<!-- Generated by graphviz version 2.43.0 (0)
 -->
<!-- Title: bytebuf_cGetFree Pages: 1 -->
<svg width="301pt" height="101pt"
 viewBox="0.00 0.00 301.00 101.00" xmlns="http://www.w3.org/2000/svg" xmlns:xlink="http://www.w3.org/1999/xlink">
<g id="graph0" class="graph" transform="scale(1 1) rotate(0) translate(4 97)">
<title>bytebuf_cGetFree</title>
<!-- Node1 -->
<g id="Node000001" class="node">
<title>Node1</title>
<g id="a_Node000001"><a xlink:title=" ">
<polygon fill="#999999" stroke="#666666" points="293,-56 190,-56 190,-37 293,-37 293,-56"/>
<text text-anchor="middle" x="241.5" y="-44" font-family="Helvetica,sans-Serif" font-size="10.00">bytebuf_cGetFree</text>
</a>
</g>
</g>
<!-- Node2 -->
<g id="Node000002" class="node">
<title>Node2</title>
<g id="a_Node000002"><a xlink:href="bytebuf_8c.html#a01457594715ba04c6f96d142af5789be" target="_top" xlink:title=" ">
<polygon fill="white" stroke="#666666" points="154,-93 0,-93 0,-74 154,-74 154,-93"/>
<text text-anchor="middle" x="77" y="-81" font-family="Helvetica,sans-Serif" font-size="10.00">bytebuf_cPushReqBlindLock</text>
</a>
</g>
</g>
<!-- Node1&#45;&gt;Node2 -->
<g id="edge1_Node000001_Node000002" class="edge">
<title>Node1&#45;&gt;Node2</title>
<g id="a_edge1_Node000001_Node000002"><a xlink:title=" ">
<path fill="none" stroke="#63b8ff" d="M188.73,-58.29C166.54,-63.34 140.97,-69.16 119.99,-73.94"/>
<polygon fill="#63b8ff" stroke="#63b8ff" points="189.68,-61.66 198.65,-56.03 188.12,-54.84 189.68,-61.66"/>
</a>
</g>
</g>
<!-- Node3 -->
<g id="Node000003" class="node">
<title>Node3</title>
<g id="a_Node000003"><a xlink:href="bytebuf_8c.html#ae3462d78c7ca27058acbe7e7db71d4f0" target="_top" xlink:title=" ">
<polygon fill="white" stroke="#666666" points="141.5,-56 12.5,-56 12.5,-37 141.5,-37 141.5,-56"/>
<text text-anchor="middle" x="77" y="-44" font-family="Helvetica,sans-Serif" font-size="10.00">bytebuf_cPushReqLock</text>
</a>
</g>
</g>
<!-- Node1&#45;&gt;Node3 -->
<g id="edge2_Node000001_Node000003" class="edge">
<title>Node1&#45;&gt;Node3</title>
<g id="a_edge2_Node000001_Node000003"><a xlink:title=" ">
<path fill="none" stroke="#63b8ff" d="M179.73,-46.5C167.31,-46.5 154.21,-46.5 141.69,-46.5"/>
<polygon fill="#63b8ff" stroke="#63b8ff" points="179.97,-50 189.97,-46.5 179.97,-43 179.97,-50"/>
</a>
</g>
</g>
<!-- Node4 -->
<g id="Node000004" class="node">
<title>Node4</title>
<g id="a_Node000004"><a xlink:href="bytebuf_8c.html#a59e83f78644c501d12a13d89bfb8bab8" target="_top" xlink:title=" ">
<polygon fill="white" stroke="#666666" points="133.5,-19 20.5,-19 20.5,0 133.5,0 133.5,-19"/>
<text text-anchor="middle" x="77" y="-7" font-family="Helvetica,sans-Serif" font-size="10.00">bytebuf_cWriteByte</text>
</a>
</g>
</g>
<!-- Node1&#45;&gt;Node4 -->
<g id="edge3_Node000001_Node000004" class="edge">
<title>Node1&#45;&gt;Node4</title>
<g id="a_edge3_Node000001_Node000004"><a xlink:title=" ">
<path fill="none" stroke="#63b8ff" d="M188.73,-34.71C166.54,-29.66 140.97,-23.84 119.99,-19.06"/>
<polygon fill="#63b8ff" stroke="#63b8ff" points="188.12,-38.16 198.65,-36.97 189.68,-31.34 188.12,-38.16"/>
</a>
</g>
</g>
</g>
</svg>
