<?xml version="1.0" encoding="UTF-8" standalone="no"?>
<!DOCTYPE svg PUBLIC "-//W3C//DTD SVG 1.1//EN"
 "http://www.w3.org/Graphics/SVG/1.1/DTD/svg11.dtd">
<!-- Generated by graphviz version 2.43.0 (0)
 -->
<!-- Title: ds/fifoq.c Pages: 1 -->
<svg width="133pt" height="140pt"
 viewBox="0.00 0.00 132.50 140.00" xmlns="http://www.w3.org/2000/svg" xmlns:xlink="http://www.w3.org/1999/xlink">
<g id="graph0" class="graph" transform="scale(1 1) rotate(0) translate(4 136)">
<title>ds/fifoq.c</title>
<!-- Node1 -->
<g id="node1" class="node">
<title>Node1</title>
<g id="a_node1"><a xlink:title="Implementation of a generic FIFO queue.">
<polygon fill="#bfbfbf" stroke="black" points="31,-112.5 31,-131.5 92,-131.5 92,-112.5 31,-112.5"/>
<text text-anchor="middle" x="61.5" y="-119.5" font-family="Helvetica,sans-Serif" font-size="10.00">ds/fifoq.c</text>
</a>
</g>
</g>
<!-- Node2 -->
<g id="node2" class="node">
<title>Node2</title>
<g id="a_node2"><a xlink:href="fifoq_8h_source.html" target="_top" xlink:title=" ">
<polygon fill="none" stroke="black" points="3,-56.5 3,-75.5 50,-75.5 50,-56.5 3,-56.5"/>
<text text-anchor="middle" x="26.5" y="-63.5" font-family="Helvetica,sans-Serif" font-size="10.00">fifoq.h</text>
</a>
</g>
</g>
<!-- Node1&#45;&gt;Node2 -->
<g id="edge1" class="edge">
<title>Node1&#45;&gt;Node2</title>
<path fill="none" stroke="midnightblue" d="M55.72,-112.08C50.83,-104.53 43.67,-93.49 37.67,-84.23"/>
<polygon fill="midnightblue" stroke="midnightblue" points="40.55,-82.24 32.17,-75.75 34.67,-86.05 40.55,-82.24"/>
</g>
<!-- Node4 -->
<g id="node4" class="node">
<title>Node4</title>
<g id="a_node4"><a xlink:title=" ">
<polygon fill="none" stroke="#bfbfbf" points="68.5,-56.5 68.5,-75.5 124.5,-75.5 124.5,-56.5 68.5,-56.5"/>
<text text-anchor="middle" x="96.5" y="-63.5" font-family="Helvetica,sans-Serif" font-size="10.00">stddef.h</text>
</a>
</g>
</g>
<!-- Node1&#45;&gt;Node4 -->
<g id="edge3" class="edge">
<title>Node1&#45;&gt;Node4</title>
<path fill="none" stroke="midnightblue" d="M67.28,-112.08C72.17,-104.53 79.33,-93.49 85.33,-84.23"/>
<polygon fill="midnightblue" stroke="midnightblue" points="88.33,-86.05 90.83,-75.75 82.45,-82.24 88.33,-86.05"/>
</g>
<!-- Node3 -->
<g id="node3" class="node">
<title>Node3</title>
<g id="a_node3"><a xlink:title=" ">
<polygon fill="none" stroke="#bfbfbf" points="0,-0.5 0,-19.5 53,-19.5 53,-0.5 0,-0.5"/>
<text text-anchor="middle" x="26.5" y="-7.5" font-family="Helvetica,sans-Serif" font-size="10.00">stdint.h</text>
</a>
</g>
</g>
<!-- Node2&#45;&gt;Node3 -->
<g id="edge2" class="edge">
<title>Node2&#45;&gt;Node3</title>
<path fill="none" stroke="midnightblue" d="M26.5,-56.08C26.5,-49.01 26.5,-38.86 26.5,-29.99"/>
<polygon fill="midnightblue" stroke="midnightblue" points="30,-29.75 26.5,-19.75 23,-29.75 30,-29.75"/>
</g>
</g>
</svg>
