<?xml version="1.0" encoding="UTF-8" standalone="no"?>
<!DOCTYPE svg PUBLIC "-//W3C//DTD SVG 1.1//EN"
 "http://www.w3.org/Graphics/SVG/1.1/DTD/svg11.dtd">
<!-- Generated by graphviz version 2.43.0 (0)
 -->
<!-- Title: ds/hamming.c Pages: 1 -->
<svg width="134pt" height="140pt"
 viewBox="0.00 0.00 134.00 140.00" xmlns="http://www.w3.org/2000/svg" xmlns:xlink="http://www.w3.org/1999/xlink">
<g id="graph0" class="graph" transform="scale(1 1) rotate(0) translate(4 136)">
<title>ds/hamming.c</title>
<!-- Node1 -->
<g id="node1" class="node">
<title>Node1</title>
<g id="a_node1"><a xlink:title="Implementation of the hamming library.">
<polygon fill="#bfbfbf" stroke="black" points="19.5,-112.5 19.5,-131.5 105.5,-131.5 105.5,-112.5 19.5,-112.5"/>
<text text-anchor="middle" x="62.5" y="-119.5" font-family="Helvetica,sans-Serif" font-size="10.00">ds/hamming.c</text>
</a>
</g>
</g>
<!-- Node2 -->
<g id="node2" class="node">
<title>Node2</title>
<g id="a_node2"><a xlink:href="hamming_8h.html" target="_top" xlink:title="Interface and usage of the hamming library.">
<polygon fill="none" stroke="black" points="26.5,-56.5 26.5,-75.5 98.5,-75.5 98.5,-56.5 26.5,-56.5"/>
<text text-anchor="middle" x="62.5" y="-63.5" font-family="Helvetica,sans-Serif" font-size="10.00">hamming.h</text>
</a>
</g>
</g>
<!-- Node1&#45;&gt;Node2 -->
<g id="edge1" class="edge">
<title>Node1&#45;&gt;Node2</title>
<path fill="none" stroke="midnightblue" d="M62.5,-112.08C62.5,-105.01 62.5,-94.86 62.5,-85.99"/>
<polygon fill="midnightblue" stroke="midnightblue" points="66,-85.75 62.5,-75.75 59,-85.75 66,-85.75"/>
</g>
<!-- Node3 -->
<g id="node3" class="node">
<title>Node3</title>
<g id="a_node3"><a xlink:title=" ">
<polygon fill="none" stroke="#bfbfbf" points="0,-0.5 0,-19.5 53,-19.5 53,-0.5 0,-0.5"/>
<text text-anchor="middle" x="26.5" y="-7.5" font-family="Helvetica,sans-Serif" font-size="10.00">stdint.h</text>
</a>
</g>
</g>
<!-- Node2&#45;&gt;Node3 -->
<g id="edge2" class="edge">
<title>Node2&#45;&gt;Node3</title>
<path fill="none" stroke="midnightblue" d="M56.56,-56.08C51.52,-48.53 44.16,-37.49 37.99,-28.23"/>
<polygon fill="midnightblue" stroke="midnightblue" points="40.79,-26.13 32.33,-19.75 34.97,-30.01 40.79,-26.13"/>
</g>
<!-- Node4 -->
<g id="node4" class="node">
<title>Node4</title>
<g id="a_node4"><a xlink:href="config_8h_source.html" target="_top" xlink:title=" ">
<polygon fill="none" stroke="black" points="71,-0.5 71,-19.5 126,-19.5 126,-0.5 71,-0.5"/>
<text text-anchor="middle" x="98.5" y="-7.5" font-family="Helvetica,sans-Serif" font-size="10.00">config.h</text>
</a>
</g>
</g>
<!-- Node2&#45;&gt;Node4 -->
<g id="edge3" class="edge">
<title>Node2&#45;&gt;Node4</title>
<path fill="none" stroke="midnightblue" d="M68.44,-56.08C73.48,-48.53 80.84,-37.49 87.01,-28.23"/>
<polygon fill="midnightblue" stroke="midnightblue" points="90.03,-30.01 92.67,-19.75 84.21,-26.13 90.03,-30.01"/>
</g>
</g>
</svg>
