<?xml version="1.0" encoding="UTF-8" standalone="no"?>
<!DOCTYPE svg PUBLIC "-//W3C//DTD SVG 1.1//EN"
 "http://www.w3.org/Graphics/SVG/1.1/DTD/svg11.dtd">
<!-- Generated by graphviz version 2.43.0 (0)
 -->
<!-- Title: hash_function Pages: 1 -->
<svg width="233pt" height="101pt"
 viewBox="0.00 0.00 233.00 101.00" xmlns="http://www.w3.org/2000/svg" xmlns:xlink="http://www.w3.org/1999/xlink">
<g id="graph0" class="graph" transform="scale(1 1) rotate(0) translate(4 97)">
<title>hash_function</title>
<!-- Node1 -->
<g id="Node000001" class="node">
<title>Node1</title>
<g id="a_Node000001"><a xlink:title=" ">
<polygon fill="#999999" stroke="#666666" points="225,-56 140,-56 140,-37 225,-37 225,-56"/>
<text text-anchor="middle" x="182.5" y="-44" font-family="Helvetica,sans-Serif" font-size="10.00">hash_function</text>
</a>
</g>
</g>
<!-- Node2 -->
<g id="Node000002" class="node">
<title>Node2</title>
<g id="a_Node000002"><a xlink:href="hashmap_8c.html#ac2087a3187c08d43cc3f77e0767414f4" target="_top" xlink:title=" ">
<polygon fill="white" stroke="#666666" points="93.5,-93 10.5,-93 10.5,-74 93.5,-74 93.5,-93"/>
<text text-anchor="middle" x="52" y="-81" font-family="Helvetica,sans-Serif" font-size="10.00">hashmap_get</text>
</a>
</g>
</g>
<!-- Node1&#45;&gt;Node2 -->
<g id="edge1_Node000001_Node000002" class="edge">
<title>Node1&#45;&gt;Node2</title>
<g id="a_edge1_Node000001_Node000002"><a xlink:title=" ">
<path fill="none" stroke="#63b8ff" d="M138.69,-58.83C121.67,-63.73 102.39,-69.28 86.43,-73.88"/>
<polygon fill="#63b8ff" stroke="#63b8ff" points="139.77,-62.16 148.41,-56.03 137.83,-55.43 139.77,-62.16"/>
</a>
</g>
</g>
<!-- Node3 -->
<g id="Node000003" class="node">
<title>Node3</title>
<g id="a_Node000003"><a xlink:href="hashmap_8c.html#a87e9b135f918c138e2b3602f7b28acf0" target="_top" xlink:title=" ">
<polygon fill="white" stroke="#666666" points="99.5,-56 4.5,-56 4.5,-37 99.5,-37 99.5,-56"/>
<text text-anchor="middle" x="52" y="-44" font-family="Helvetica,sans-Serif" font-size="10.00">hashmap_insert</text>
</a>
</g>
</g>
<!-- Node1&#45;&gt;Node3 -->
<g id="edge2_Node000001_Node000003" class="edge">
<title>Node1&#45;&gt;Node3</title>
<g id="a_edge2_Node000001_Node000003"><a xlink:title=" ">
<path fill="none" stroke="#63b8ff" d="M129.69,-46.5C119.82,-46.5 109.55,-46.5 99.85,-46.5"/>
<polygon fill="#63b8ff" stroke="#63b8ff" points="129.78,-50 139.78,-46.5 129.78,-43 129.78,-50"/>
</a>
</g>
</g>
<!-- Node4 -->
<g id="Node000004" class="node">
<title>Node4</title>
<g id="a_Node000004"><a xlink:href="hashmap_8c.html#a2988e592ad559b0091b78e44689b5189" target="_top" xlink:title=" ">
<polygon fill="white" stroke="#666666" points="104,-19 0,-19 0,0 104,0 104,-19"/>
<text text-anchor="middle" x="52" y="-7" font-family="Helvetica,sans-Serif" font-size="10.00">hashmap_remove</text>
</a>
</g>
</g>
<!-- Node1&#45;&gt;Node4 -->
<g id="edge3_Node000001_Node000004" class="edge">
<title>Node1&#45;&gt;Node4</title>
<g id="a_edge3_Node000001_Node000004"><a xlink:title=" ">
<path fill="none" stroke="#63b8ff" d="M138.69,-34.17C121.67,-29.27 102.39,-23.72 86.43,-19.12"/>
<polygon fill="#63b8ff" stroke="#63b8ff" points="137.83,-37.57 148.41,-36.97 139.77,-30.84 137.83,-37.57"/>
</a>
</g>
</g>
</g>
</svg>
