<?xml version="1.0" encoding="UTF-8" standalone="no"?>
<!DOCTYPE svg PUBLIC "-//W3C//DTD SVG 1.1//EN"
 "http://www.w3.org/Graphics/SVG/1.1/DTD/svg11.dtd">
<!-- Generated by graphviz version 2.43.0 (0)
 -->
<!-- Title: FIFOQ_t Pages: 1 -->
<svg width="173pt" height="106pt"
 viewBox="0.00 0.00 173.00 106.00" xmlns="http://www.w3.org/2000/svg" xmlns:xlink="http://www.w3.org/1999/xlink">
<g id="graph0" class="graph" transform="scale(1 1) rotate(0) translate(4 102)">
<title>FIFOQ_t</title>
<!-- Node1 -->
<g id="node1" class="node">
<title>Node1</title>
<g id="a_node1"><a xlink:title=" ">
<polygon fill="#bfbfbf" stroke="black" points="33,-0.5 33,-19.5 89,-19.5 89,-0.5 33,-0.5"/>
<text text-anchor="middle" x="61" y="-7.5" font-family="Helvetica,sans-Serif" font-size="10.00">FIFOQ_t</text>
</a>
</g>
</g>
<!-- Node2 -->
<g id="node2" class="node">
<title>Node2</title>
<g id="a_node2"><a xlink:href="struct___f_i_f_o_q___i_t_e_m___s_t_u_b__t.html" target="_top" xlink:title=" ">
<polygon fill="none" stroke="black" points="0,-78.5 0,-97.5 122,-97.5 122,-78.5 0,-78.5"/>
<text text-anchor="middle" x="61" y="-85.5" font-family="Helvetica,sans-Serif" font-size="10.00">_FIFOQ_ITEM_STUB_t</text>
</a>
</g>
</g>
<!-- Node2&#45;&gt;Node1 -->
<g id="edge1" class="edge">
<title>Node2&#45;&gt;Node1</title>
<path fill="none" stroke="#9a32cd" stroke-dasharray="5,2" d="M61,-68.22C61,-52.7 61,-31.36 61,-19.62"/>
<polygon fill="#9a32cd" stroke="#9a32cd" points="57.5,-68.28 61,-78.28 64.5,-68.28 57.5,-68.28"/>
<text text-anchor="middle" x="72" y="-52" font-family="Helvetica,sans-Serif" font-size="10.00"> first</text>
<text text-anchor="middle" x="72" y="-41" font-family="Helvetica,sans-Serif" font-size="10.00">last</text>
</g>
<!-- Node2&#45;&gt;Node2 -->
<g id="edge2" class="edge">
<title>Node2&#45;&gt;Node2</title>
<path fill="none" stroke="#9a32cd" stroke-dasharray="5,2" d="M132.49,-93.08C137.17,-91.9 140,-90.2 140,-88 140,-84.47 132.75,-82.26 122.28,-81.35"/>
<polygon fill="#9a32cd" stroke="#9a32cd" points="131.63,-89.67 122.28,-94.65 132.7,-96.59 131.63,-89.67"/>
<text text-anchor="middle" x="152.5" y="-85.5" font-family="Helvetica,sans-Serif" font-size="10.00"> next</text>
</g>
</g>
</svg>
