<?xml version="1.0" encoding="UTF-8" standalone="no"?>
<!DOCTYPE svg PUBLIC "-//W3C//DTD SVG 1.1//EN"
 "http://www.w3.org/Graphics/SVG/1.1/DTD/svg11.dtd">
<!-- Generated by graphviz version 2.43.0 (0)
 -->
<!-- Title: AVLT_t Pages: 1 -->
<svg width="132pt" height="97pt"
 viewBox="0.00 0.00 132.00 97.00" xmlns="http://www.w3.org/2000/svg" xmlns:xlink="http://www.w3.org/1999/xlink">
<g id="graph0" class="graph" transform="scale(1 1) rotate(0) translate(4 93)">
<title>AVLT_t</title>
<!-- Node1 -->
<g id="node1" class="node">
<title>Node1</title>
<g id="a_node1"><a xlink:title=" ">
<polygon fill="#bfbfbf" stroke="black" points="17,-0.5 17,-19.5 66,-19.5 66,-0.5 17,-0.5"/>
<text text-anchor="middle" x="41.5" y="-7.5" font-family="Helvetica,sans-Serif" font-size="10.00">AVLT_t</text>
</a>
</g>
</g>
<!-- Node2 -->
<g id="node2" class="node">
<title>Node2</title>
<g id="a_node2"><a xlink:href="struct_a_v_l_t___n_o_d_e__t.html" target="_top" xlink:title=" ">
<polygon fill="none" stroke="black" points="0,-68.5 0,-87.5 83,-87.5 83,-68.5 0,-68.5"/>
<text text-anchor="middle" x="41.5" y="-75.5" font-family="Helvetica,sans-Serif" font-size="10.00">AVLT_NODE_t</text>
</a>
</g>
</g>
<!-- Node2&#45;&gt;Node1 -->
<g id="edge1" class="edge">
<title>Node2&#45;&gt;Node1</title>
<path fill="none" stroke="#9a32cd" stroke-dasharray="5,2" d="M41.5,-58.04C41.5,-45.47 41.5,-29.56 41.5,-19.84"/>
<polygon fill="#9a32cd" stroke="#9a32cd" points="38,-58.37 41.5,-68.37 45,-58.37 38,-58.37"/>
<text text-anchor="middle" x="53" y="-41" font-family="Helvetica,sans-Serif" font-size="10.00"> root</text>
</g>
<!-- Node2&#45;&gt;Node2 -->
<g id="edge2" class="edge">
<title>Node2&#45;&gt;Node2</title>
<path fill="none" stroke="#9a32cd" stroke-dasharray="5,2" d="M93.32,-83.07C98.03,-82.01 101,-80.32 101,-78 101,-74.28 93.41,-72.19 83.21,-71.72"/>
<polygon fill="#9a32cd" stroke="#9a32cd" points="92.72,-79.61 83.21,-84.28 93.55,-86.56 92.72,-79.61"/>
<text text-anchor="middle" x="112.5" y="-81" font-family="Helvetica,sans-Serif" font-size="10.00"> left</text>
<text text-anchor="middle" x="112.5" y="-70" font-family="Helvetica,sans-Serif" font-size="10.00">right</text>
</g>
</g>
</svg>
